<svg width="24" height="25" viewBox="0 0 24 25" fill="none" xmlns="http://www.w3.org/2000/svg">
<path d="M0 15C0 16.625 1.05 18 2.5 18.525V22.5H0V25H7.5V22.5H5V18.525C6.45 18 7.5 16.625 7.5 15V5H0V15ZM2.5 7.5H5V11.25H2.5V7.5ZM2.5 13.75H5V15C5 15.6875 4.4375 16.25 3.75 16.25C3.0625 16.25 2.5 15.6875 2.5 15V13.75Z" fill="white"/>
<path d="M22.05 8.175L20.85 7.775C20.3375 7.6 20 7.125 20 6.5875V1.25C20 0.5625 19.4375 0 18.75 0H15C14.3125 0 13.75 0.5625 13.75 1.25V6.6C13.75 7.1375 13.4125 7.6125 12.9 7.7875L11.7 8.1875C10.6875 8.5375 10 9.4875 10 10.5625V22.5C10 23.875 11.125 25 12.5 25H21.25C22.625 25 23.75 23.875 23.75 22.5V10.55C23.75 9.475 23.0625 8.525 22.05 8.175ZM16.25 2.5H17.5V3.75H16.25V2.5ZM21.25 22.5H12.5V20H21.25V22.5ZM21.25 17.5H12.5V15H21.25V17.5ZM21.25 12.5H12.5V10.55L13.6875 10.15C15.225 9.65 16.25 8.2125 16.25 6.6V6.25H17.5V6.6C17.5 8.2125 18.525 9.65 20.0625 10.1625L21.25 10.55V12.5Z" fill="white"/>
</svg>
