<svg width="30" height="30" viewBox="0 0 30 30" fill="none" xmlns="http://www.w3.org/2000/svg">
<path d="M18.75 23.75H10V15.4625C11.575 15.0375 12.6375 13.875 13.4625 12.975C14.5 11.8375 15.1 11.25 16.25 11.25H18.75V23.75ZM12.5 2.52499C10.1375 2.52499 8.1125 3.91249 7.1625 5.91249C5.1875 6.57499 3.75 8.42499 3.75 10.625C3.75 12.95 5.35 14.8875 7.5 15.45V26.25H21.25V23.75H23.75C25.125 23.75 26.25 22.625 26.25 21.25V13.75C26.25 12.375 25.125 11.25 23.75 11.25H21.8C22.2375 10.5125 22.5 9.66249 22.5 8.74999C22.5 5.98749 20.2625 3.74999 17.5 3.74999C17.075 3.74999 16.675 3.81249 16.275 3.91249C15.25 3.06249 13.95 2.52499 12.5 2.52499ZM8.75 13.125C7.375 13.125 6.25 12 6.25 10.625C6.25 9.56249 6.9375 8.62499 7.9625 8.27499L8.9625 7.93749L9.4125 6.98749C10 5.77499 11.175 5.02499 12.5 5.02499C13.4875 5.02499 14.2375 5.46249 14.675 5.83749L15.65 6.64999C15.65 6.64999 16.45 6.24999 17.4875 6.24999C18.8625 6.24999 19.9875 7.37499 19.9875 8.74999H16.2375C12.0875 8.74999 11.4375 13.125 8.75 13.125ZM21.25 21.25V13.75H23.75V21.25H21.25Z" fill="white"/>
</svg>
