<svg width="25" height="25" viewBox="0 0 25 25" fill="none" xmlns="http://www.w3.org/2000/svg">
<path d="M14.5592 7.64706C11.9858 6.39209 8.96799 7.13433 7.2247 9.24875L9.92021 11.9443C10.2279 12.2519 10.2279 12.7451 9.92021 13.0479C9.76884 13.1992 9.56862 13.2774 9.36841 13.2774C9.1682 13.2774 8.96799 13.1992 8.81662 13.0479L6.36526 10.5965L0.109902 23.4246C-0.0317102 23.7176 -0.0414765 24.0741 0.109902 24.3866C0.373594 24.9286 1.03282 25.1533 1.57486 24.8896L8.09879 21.7057L5.69626 19.3032C5.38862 19.0005 5.38862 18.5024 5.69626 18.1996C6.0039 17.8969 6.4971 17.8969 6.79986 18.1996L9.58327 20.983L14.5641 18.5512C15.7361 17.9799 16.7371 17.0228 17.3524 15.7629C18.8223 12.75 17.5722 9.1169 14.5592 7.64706V7.64706ZM19.0566 5.94283C20.0089 3.95538 19.5157 1.60657 17.577 0C15.1208 2.03629 15.0134 5.24942 17.1913 7.41755L17.5819 7.80821C19.7501 9.98611 22.9681 9.87868 24.9995 7.42244C23.3929 5.48381 21.0441 4.99061 19.0566 5.94283V5.94283Z" fill="white"/>
</svg>
