<svg width="16" height="18" viewBox="0 0 16 18" fill="none" xmlns="http://www.w3.org/2000/svg">
<path d="M7.65 9C10.0645 9 12.0214 6.98555 12.0214 4.5C12.0214 2.01445 10.0645 0 7.65 0C5.23547 0 3.27857 2.01445 3.27857 4.5C3.27857 6.98555 5.23547 9 7.65 9ZM10.71 10.125H10.1397C9.3815 10.4836 8.53795 10.6875 7.65 10.6875C6.76205 10.6875 5.92192 10.4836 5.16034 10.125H4.59C2.05594 10.125 0 12.2414 0 14.85V16.3125C0 17.2441 0.734263 18 1.63929 18H13.6607C14.5657 18 15.3 17.2441 15.3 16.3125V14.85C15.3 12.2414 13.2441 10.125 10.71 10.125Z" fill="#FF6060"/>
</svg>
