<svg width="124" height="124" viewBox="0 0 124 124" fill="none" xmlns="http://www.w3.org/2000/svg">
<circle cx="62" cy="62" r="62" fill="#FF6060"/>
<path d="M64.7684 50.1667L67.5896 53.25H73.8334V71.75H49.1667V53.25H55.4105L58.2317 50.1667H64.7684ZM66.125 47.0833H56.875L54.0538 50.1667H49.1667C47.4709 50.1667 46.0834 51.5542 46.0834 53.25V71.75C46.0834 73.4458 47.4709 74.8333 49.1667 74.8333H73.8334C75.5292 74.8333 76.9167 73.4458 76.9167 71.75V53.25C76.9167 51.5542 75.5292 50.1667 73.8334 50.1667H68.9463L66.125 47.0833ZM61.5 57.875C64.0438 57.875 66.125 59.9563 66.125 62.5C66.125 65.0438 64.0438 67.125 61.5 67.125C58.9563 67.125 56.875 65.0438 56.875 62.5C56.875 59.9563 58.9563 57.875 61.5 57.875ZM61.5 54.7917C57.245 54.7917 53.7917 58.245 53.7917 62.5C53.7917 66.755 57.245 70.2083 61.5 70.2083C65.755 70.2083 69.2084 66.755 69.2084 62.5C69.2084 58.245 65.755 54.7917 61.5 54.7917Z" fill="white"/>
</svg>
