<svg width="11" height="9" viewBox="0 0 11 9" fill="none" xmlns="http://www.w3.org/2000/svg">
<path d="M8.01929 0C7.13469 0 6.28568 0.397275 5.73154 1.02507C5.17739 0.397275 4.32838 0 3.44379 0C1.87795 0 0.647644 1.18692 0.647644 2.69755C0.647644 4.5515 2.37617 6.06213 4.99437 8.35749L5.73154 9L6.4687 8.35259C9.08691 6.06213 10.8154 4.5515 10.8154 2.69755C10.8154 1.18692 9.58513 0 8.01929 0ZM5.78238 7.6267L5.73154 7.67575L5.6807 7.6267C3.26076 5.51281 1.66442 4.11499 1.66442 2.69755C1.66442 1.71662 2.42701 0.980926 3.44379 0.980926C4.2267 0.980926 4.98929 1.46649 5.25873 2.13842H6.20942C6.47379 1.46649 7.23637 0.980926 8.01929 0.980926C9.03607 0.980926 9.79865 1.71662 9.79865 2.69755C9.79865 4.11499 8.20231 5.51281 5.78238 7.6267Z" fill="#FF6060"/>
</svg>
