<svg width="20" height="25" viewBox="0 0 20 25" fill="none" xmlns="http://www.w3.org/2000/svg">
<path d="M10 12.5C8.625 12.5 7.5 11.375 7.5 10C7.5 8.625 8.625 7.5 10 7.5C11.375 7.5 12.5 8.625 12.5 10C12.5 11.375 11.375 12.5 10 12.5ZM17.5 10.25C17.5 5.7125 14.1875 2.5 10 2.5C5.8125 2.5 2.5 5.7125 2.5 10.25C2.5 13.175 4.9375 17.05 10 21.675C15.0625 17.05 17.5 13.175 17.5 10.25ZM10 0C15.25 0 20 4.025 20 10.25C20 14.4 16.6625 19.3125 10 25C3.3375 19.3125 0 14.4 0 10.25C0 4.025 4.75 0 10 0Z" fill="white"/>
</svg>
