<svg width="17" height="19" viewBox="0 0 17 19" fill="none" xmlns="http://www.w3.org/2000/svg">
<path d="M14.1667 13.4297C13.4489 13.4297 12.8067 13.7159 12.3156 14.1642L5.58167 10.2058C5.62889 9.98645 5.66667 9.76707 5.66667 9.53815C5.66667 9.30924 5.62889 9.08986 5.58167 8.87048L12.24 4.9503C12.75 5.42721 13.4206 5.72289 14.1667 5.72289C15.7344 5.72289 17 4.44478 17 2.86145C17 1.27811 15.7344 0 14.1667 0C12.5989 0 11.3333 1.27811 11.3333 2.86145C11.3333 3.09036 11.3711 3.30974 11.4183 3.52912L4.76 7.4493C4.25 6.97239 3.57944 6.67671 2.83333 6.67671C1.26556 6.67671 0 7.95482 0 9.53815C0 11.1215 1.26556 12.3996 2.83333 12.3996C3.57944 12.3996 4.25 12.1039 4.76 11.627L11.4844 15.5949C11.4372 15.7952 11.4089 16.005 11.4089 16.2149C11.4089 17.7505 12.6461 19 14.1667 19C15.6872 19 16.9244 17.7505 16.9244 16.2149C16.9244 14.6792 15.6872 13.4297 14.1667 13.4297ZM14.1667 1.90763C14.6861 1.90763 15.1111 2.33685 15.1111 2.86145C15.1111 3.38604 14.6861 3.81526 14.1667 3.81526C13.6472 3.81526 13.2222 3.38604 13.2222 2.86145C13.2222 2.33685 13.6472 1.90763 14.1667 1.90763ZM2.83333 10.492C2.31389 10.492 1.88889 10.0628 1.88889 9.53815C1.88889 9.01355 2.31389 8.58434 2.83333 8.58434C3.35278 8.58434 3.77778 9.01355 3.77778 9.53815C3.77778 10.0628 3.35278 10.492 2.83333 10.492ZM14.1667 17.1878C13.6472 17.1878 13.2222 16.7585 13.2222 16.2339C13.2222 15.7093 13.6472 15.2801 14.1667 15.2801C14.6861 15.2801 15.1111 15.7093 15.1111 16.2339C15.1111 16.7585 14.6861 17.1878 14.1667 17.1878Z" fill="black"/>
</svg>
