<svg width="25" height="25" viewBox="0 0 25 25" fill="none" xmlns="http://www.w3.org/2000/svg">
<path d="M12.5 0C5.59476 0 0 5.59476 0 12.5C0 19.4052 5.59476 25 12.5 25C19.4052 25 25 19.4052 25 12.5C25 5.59476 19.4052 0 12.5 0ZM6.85484 10.0806C6.85484 9.18851 7.5756 8.46774 8.46774 8.46774C9.35988 8.46774 10.0806 9.18851 10.0806 10.0806C10.0806 10.9728 9.35988 11.6935 8.46774 11.6935C7.5756 11.6935 6.85484 10.9728 6.85484 10.0806ZM12.5 20.5645C10.7208 20.5645 9.27419 19.1179 9.27419 17.3387C9.27419 15.5595 10.7208 14.1129 12.5 14.1129C14.2792 14.1129 15.7258 15.5595 15.7258 17.3387C15.7258 19.1179 14.2792 20.5645 12.5 20.5645ZM16.5323 11.6935C15.6401 11.6935 14.9194 10.9728 14.9194 10.0806C14.9194 9.18851 15.6401 8.46774 16.5323 8.46774C17.4244 8.46774 18.1452 9.18851 18.1452 10.0806C18.1452 10.9728 17.4244 11.6935 16.5323 11.6935Z" fill="white"/>
</svg>
