<svg width="19" height="17" viewBox="0 0 19 17" fill="none" xmlns="http://www.w3.org/2000/svg">
<path d="M13.775 0C12.122 0 10.5355 0.750409 9.5 1.93624C8.4645 0.750409 6.878 0 5.225 0C2.299 0 0 2.24196 0 5.09537C0 8.59727 3.23 11.4507 8.1225 15.7864L9.5 17L10.8775 15.7771C15.77 11.4507 19 8.59727 19 5.09537C19 2.24196 16.701 0 13.775 0ZM9.595 14.406L9.5 14.4986L9.405 14.406C4.883 10.4131 1.9 7.77275 1.9 5.09537C1.9 3.24251 3.325 1.85286 5.225 1.85286C6.688 1.85286 8.113 2.77003 8.6165 4.03924H10.393C10.887 2.77003 12.312 1.85286 13.775 1.85286C15.675 1.85286 17.1 3.24251 17.1 5.09537C17.1 7.77275 14.117 10.4131 9.595 14.406Z" fill="#FF6060"/>
</svg>
